<?xml version="1.0" encoding="utf-8"?>
<!-- Generator: Adobe Illustrator 22.1.0, SVG Export Plug-In . SVG Version: 6.00 Build 0)  -->
<svg version="1.1" id="Layer_1" xmlns="http://www.w3.org/2000/svg" xmlns:xlink="http://www.w3.org/1999/xlink" x="0px" y="0px"
	 viewBox="0 0 200 200" style="enable-background:new 0 0 200 200;" xml:space="preserve">
<style type="text/css">
	.st0{fill:#AEDCFE;}
	.st1{fill:#7CC6FE;}
	.st2{fill:#1A69C1;}
	.st3{fill:#1897F5;}
</style>
<path class="st0" d="M99.3,117c4.8-6.6,7-14.5,10.3-21.8c7.1-15.7,13.8-31.7,20.6-47.5c1-2.3,2.2-3.5,5-3.5c9.5,0.2,19.1,0.2,28.6,0
	c3.3,0,3.5,1,2.1,3.6c-15.4,29.7-30.7,59.4-45.9,89.2c-6.1,11.9-12,24-18.2,35.9c-0.5,1-0.7,5-3.4,1.3c1.6-1.4,0.9-3.3,0.9-5
	C99.3,151.8,99.3,134.4,99.3,117z"/>
<path class="st1" d="M99.3,117c0,17.4,0,34.8,0,52.2c0,1.7,0.7,3.6-0.9,5c-17.5-34.2-35-68.4-52.4-102.5c-4.1-8-8.2-16.1-12.4-24.1
	c-1.2-2.3-1.3-3.4,1.9-3.4c9.8,0.1,19.7,0.1,29.5,0c2.8,0,3.4,1.6,4.3,3.6C79.2,70.9,89.2,93.9,99.3,117z"/>
<path class="st2" d="M99.3,22c10.5,0,20.9,0,32,0c-4.3,10.2-8.4,20-12.6,29.9c-6.1,14.4-12.2,28.7-18.3,43.1
	c-0.1,0.3-0.3,0.7-0.5,0.8c-0.7,0.2-0.7-0.4-0.8-0.8C99.2,70.6,99.2,46.3,99.3,22z"/>
<path class="st3" d="M99.3,22c0,24.3-0.1,48.6-0.1,72.9C91.1,76.1,83,57.3,74.9,38.5c-1.9-4.4-3.8-8.9-5.7-13.4
	c-0.9-2.1-1.4-3.5,1.9-3.4C80.5,22,89.9,21.9,99.3,22z"/>
</svg>
